<svg width="405" height="120" viewBox="0 0 405 120" fill="none" xmlns="http://www.w3.org/2000/svg">
<path d="M356.147 35.1406L362.62 49.6479L369.211 35.1406H374.213V54.6403H369.623V44.1856L364.886 54.6403H360.178L355.559 44.1856V54.6403H350.969V35.1406H356.147Z" fill="black"/>
<path d="M337.468 34.7578C343.647 34.7578 347.678 39.3684 347.678 44.8894C347.678 50.381 343.647 55.021 337.468 55.021C331.289 55.021 327.258 50.381 327.258 44.8894C327.258 39.3684 331.289 34.7578 337.468 34.7578ZM337.468 50.939C340.763 50.939 343.117 48.1491 343.117 44.8894C343.117 41.6003 340.763 38.8398 337.468 38.8398C334.172 38.8398 331.818 41.6003 331.818 44.8894C331.818 48.1491 334.172 50.939 337.468 50.939Z" fill="black"/>
<path d="M316.036 38.8398C312.829 38.8398 310.475 41.4535 310.475 44.8894C310.475 48.3253 312.829 50.939 316.036 50.939C317.86 50.939 319.331 50.1461 320.302 48.9127H325.186C323.627 52.6129 320.42 55.021 316.036 55.021C310.269 55.021 305.914 50.7334 305.914 44.8894C305.914 39.0454 310.269 34.7578 316.036 34.7578C320.42 34.7578 323.627 37.1953 325.186 40.8661H320.302C319.331 39.6621 317.86 38.8398 316.036 38.8398Z" fill="black"/>
<path d="M298.938 54.641V49.5898H303.998V54.641H298.938Z" fill="black"/>
<path d="M287.246 35.1406V50.5583H296.662V54.6403H282.656V35.1406H287.246Z" fill="black"/>
<path d="M275.687 54.6403L273.834 50.4702H265.831L263.977 54.6403H259.328L267.802 35.1406H272.068L280.542 54.6403H275.687ZM269.862 41.4545L267.655 46.3882H272.01L269.862 41.4545Z" fill="black"/>
<path d="M255.859 44.8904C256.977 45.5365 257.948 47.0049 257.948 48.855C257.948 52.056 255.83 54.6403 251.269 54.6403H242.266V35.1406H251.269C255.83 35.1406 257.948 37.7249 257.948 40.8965C257.948 42.7467 256.977 44.2444 255.859 44.8904ZM246.856 50.5583H250.74C252.27 50.5583 253.358 49.9416 253.358 48.7962C253.358 47.5335 252.328 46.9461 250.74 46.9461H246.856V50.5583ZM246.856 42.8641H250.74C252.27 42.8641 253.358 42.2181 253.358 41.0727C253.358 39.81 252.328 39.2226 250.74 39.2226H246.856V42.8641Z" fill="black"/>
<path d="M233.44 35.1406H238.03V54.6403H233.087L224.731 42.1593V54.6403H220.141V35.1406H225.084L233.44 47.6216V35.1406Z" fill="black"/>
<path d="M207.997 43.3046L212.999 35.1406H218.03L210.292 48.0033V54.6403H205.702V48.0033L197.875 35.1406H202.936L207.997 43.3046Z" fill="black"/>
<path d="M180.164 48.8833H184.754C185.637 50.4691 187.314 50.939 189.285 50.939C191.139 50.939 192.846 50.2929 192.846 49.0008C192.846 48.0904 192.257 47.2094 189.903 47.0038L186.667 46.7101C182.459 46.3284 180.782 44.0084 180.782 41.0423C180.782 37.4302 183.842 34.7578 188.667 34.7578C193.581 34.7578 196.612 37.6064 197.553 40.8661H192.963C192.404 39.574 190.433 38.8398 188.638 38.8398C186.902 38.8398 185.343 39.5153 185.343 40.8368C185.343 41.6884 186.078 42.5107 187.844 42.6869L191.198 43.0099C195.052 43.3917 197.406 45.6236 197.406 48.7658C197.406 52.0549 194.64 55.021 189.285 55.021C184.136 55.021 181.223 52.6129 180.164 48.8833Z" fill="black"/>
<path d="M177.415 54.6403H172.825V46.8874H164.528V54.6403H159.938V35.1406H164.528V42.8348H172.825V35.1406H177.415V54.6403Z" fill="black"/>
<path d="M147.731 38.8398C144.524 38.8398 142.17 41.4535 142.17 44.8894C142.17 48.3253 144.524 50.939 147.731 50.939C149.555 50.939 151.026 50.1461 151.997 48.9127H156.882C155.322 52.6129 152.115 55.021 147.731 55.021C141.964 55.021 137.609 50.7334 137.609 44.8894C137.609 39.0454 141.964 34.7578 147.731 34.7578C152.115 34.7578 155.322 37.1953 156.882 40.8661H151.997C151.026 39.6621 149.555 38.8398 147.731 38.8398Z" fill="black"/>
<path d="M135.006 39.2226H125.59V42.8348H134.8V46.8874H125.59V50.5583H135.006V54.6403H121V35.1406H135.006V39.2226Z" fill="black"/>
<path d="M101.398 35.1406H118.229V39.2226H112.138V54.6403H107.548V39.2226H101.398V35.1406Z" fill="black"/>
<path d="M372.372 72.0248C373.513 72.0248 374.507 72.2199 375.351 72.6102C376.196 73.0004 376.845 73.5623 377.298 74.296C377.767 75.014 378.002 75.8959 378.002 76.9418C378.002 78.0969 377.752 79.0959 377.251 79.9388C376.751 80.7661 376.031 81.4061 375.093 81.8588C374.17 82.2958 373.052 82.5144 371.738 82.5144C370.878 82.5144 370.065 82.4363 369.299 82.2802C368.548 82.1241 367.915 81.8978 367.398 81.6012V79.6578C367.961 80.0012 368.642 80.2744 369.439 80.4773C370.253 80.6646 371.027 80.7583 371.762 80.7583C372.591 80.7583 373.31 80.6334 373.92 80.3837C374.546 80.1183 375.03 79.7203 375.375 79.1895C375.719 78.6432 375.891 77.9642 375.891 77.1525C375.891 76.0598 375.554 75.2247 374.882 74.6472C374.209 74.054 373.146 73.7575 371.691 73.7575C371.254 73.7575 370.753 73.7965 370.19 73.8745C369.627 73.9526 369.174 74.0306 368.829 74.1087L367.797 73.4531L368.431 65.5625H376.829V67.4356H370.19L369.791 72.2824C370.057 72.2355 370.417 72.1809 370.87 72.1185C371.324 72.056 371.824 72.0248 372.372 72.0248Z" fill="black"/>
<path d="M364.69 82.28H353.617V80.5707L358.004 76.1455C358.849 75.3026 359.56 74.5533 360.139 73.8977C360.717 73.2421 361.155 72.6021 361.453 71.9777C361.75 71.3378 361.898 70.6431 361.898 69.8939C361.898 68.9729 361.625 68.2783 361.077 67.81C360.53 67.3261 359.818 67.0842 358.942 67.0842C358.129 67.0842 357.41 67.2247 356.784 67.5056C356.174 67.7866 355.549 68.1768 354.907 68.6763L353.805 67.2949C354.243 66.9203 354.72 66.5847 355.236 66.2881C355.768 65.9915 356.338 65.7574 356.948 65.5857C357.574 65.414 358.239 65.3281 358.942 65.3281C359.99 65.3281 360.89 65.5076 361.64 65.8667C362.391 66.2257 362.97 66.7408 363.376 67.412C363.798 68.0676 364.01 68.8559 364.01 69.7768C364.01 70.4324 363.908 71.0568 363.705 71.6499C363.501 72.2275 363.212 72.7972 362.837 73.3592C362.461 73.9211 362.008 74.4909 361.476 75.0684C360.944 75.646 360.358 76.2469 359.717 76.8713L356.221 80.3132V80.4068H364.69V82.28Z" fill="black"/>
<path d="M351.331 73.8977C351.331 75.2557 351.229 76.4654 351.026 77.5269C350.822 78.5883 350.494 79.4937 350.04 80.2429C349.602 80.9766 349.024 81.5385 348.304 81.9287C347.601 82.319 346.748 82.5141 345.747 82.5141C344.496 82.5141 343.456 82.1707 342.627 81.4839C341.814 80.7971 341.204 79.8137 340.797 78.5337C340.406 77.2381 340.211 75.6928 340.211 73.8977C340.211 72.087 340.391 70.5417 340.751 69.2617C341.126 67.9817 341.72 67.0061 342.533 66.3349C343.347 65.6481 344.418 65.3047 345.747 65.3047C346.998 65.3047 348.038 65.6481 348.867 66.3349C349.696 67.0061 350.314 67.9817 350.721 69.2617C351.127 70.5417 351.331 72.087 351.331 73.8977ZM342.275 73.8977C342.275 75.4274 342.385 76.6996 342.604 77.7142C342.838 78.7288 343.206 79.4937 343.706 80.0088C344.222 80.5083 344.903 80.758 345.747 80.758C346.592 80.758 347.264 80.5083 347.765 80.0088C348.281 79.5093 348.656 78.7522 348.891 77.7376C349.125 76.7074 349.243 75.4274 349.243 73.8977C349.243 72.368 349.125 71.1036 348.891 70.1046C348.656 69.09 348.281 68.3329 347.765 67.8334C347.264 67.3183 346.592 67.0607 345.747 67.0607C344.903 67.0607 344.222 67.3183 343.706 67.8334C343.206 68.3329 342.838 69.09 342.604 70.1046C342.385 71.1036 342.275 72.368 342.275 73.8977Z" fill="black"/>
<path d="M337.838 82.28H326.766V80.5707L331.152 76.1455C331.997 75.3026 332.709 74.5533 333.287 73.8977C333.866 73.2421 334.304 72.6021 334.601 71.9777C334.898 71.3378 335.047 70.6431 335.047 69.8939C335.047 68.9729 334.773 68.2783 334.226 67.81C333.678 67.3261 332.967 67.0842 332.091 67.0842C331.278 67.0842 330.558 67.2247 329.933 67.5056C329.323 67.7866 328.697 68.1768 328.056 68.6763L326.953 67.2949C327.391 66.9203 327.868 66.5847 328.384 66.2881C328.916 65.9915 329.487 65.7574 330.097 65.5857C330.722 65.414 331.387 65.3281 332.091 65.3281C333.139 65.3281 334.038 65.5076 334.789 65.8667C335.539 66.2257 336.118 66.7408 336.525 67.412C336.947 68.0676 337.158 68.8559 337.158 69.7768C337.158 70.4324 337.056 71.0568 336.853 71.6499C336.65 72.2275 336.36 72.7972 335.985 73.3592C335.61 73.9211 335.156 74.4909 334.624 75.0684C334.093 75.646 333.506 76.2469 332.865 76.8713L329.37 80.3132V80.4068H337.838V82.28Z" fill="black"/>
<path d="M317.29 85.0181H315.812L317.455 82.2787H316.211V79.6797H318.815V82.5128L317.29 85.0181Z" fill="black"/>
<path d="M308.594 71.5077H310.611V73.0296C311.198 72.1867 312.441 71.4141 314.412 71.4141H315.045V73.334H314.412C312.042 73.334 310.611 74.8559 310.611 77.1037V82.2782H308.594V71.5077Z" fill="black"/>
<path d="M300.38 80.7132C301.647 80.7132 302.679 80.2215 303.242 79.2615H305.424C304.673 81.3454 302.75 82.5863 300.38 82.5863C297.119 82.5863 294.727 80.1981 294.727 76.8733C294.727 73.6421 297.002 71.207 300.263 71.207C303.36 71.207 305.565 73.6655 305.565 76.7562C305.565 77.0137 305.565 77.3415 305.518 77.6459H296.814C297.049 79.402 298.527 80.7132 300.38 80.7132ZM300.263 73.0802C298.41 73.0802 297.072 74.2275 296.838 75.8899H303.453C303.195 74.2275 302.022 73.0802 300.263 73.0802Z" fill="black"/>
<path d="M281.273 66.6133H283.291V72.6775C284.089 71.7878 285.402 71.2025 286.927 71.2025C290.469 71.2025 292.393 73.9185 292.393 76.8921C292.393 79.8657 290.469 82.5817 286.927 82.5817C285.402 82.5817 284.089 81.9964 283.291 81.1066V82.2774H281.273V66.6133ZM283.221 76.8921C283.221 79.4442 284.98 80.7086 286.857 80.7086C288.945 80.7086 290.376 78.9525 290.376 76.8921C290.376 74.8317 288.945 73.0756 286.857 73.0756C284.98 73.0756 283.221 74.34 283.221 76.8921Z" fill="black"/>
<path d="M275.734 82.2819V76.0069C275.734 74.2743 274.819 73.0802 272.919 73.0802C271.23 73.0802 269.587 74.3679 269.587 76.6391V82.2819H267.57V76.0069C267.57 74.2743 266.655 73.0802 264.755 73.0802C263.066 73.0802 261.447 74.3679 261.447 76.5689V82.2819H259.43V71.5114H261.447V72.6821C262.127 71.8626 263.3 71.207 264.919 71.207C266.772 71.207 268.156 72.0031 268.931 73.2206C269.846 72.0499 271.23 71.207 273.083 71.207C276.015 71.207 277.751 73.1504 277.751 75.8664V82.2819H275.734Z" fill="black"/>
<path d="M251.216 80.7132C252.483 80.7132 253.515 80.2215 254.078 79.2615H256.26C255.509 81.3454 253.586 82.5863 251.216 82.5863C247.955 82.5863 245.562 80.1981 245.562 76.8733C245.562 73.6421 247.838 71.207 251.099 71.207C254.195 71.207 256.401 73.6655 256.401 76.7562C256.401 77.0137 256.401 77.3415 256.354 77.6459H247.65C247.885 79.402 249.363 80.7132 251.216 80.7132ZM251.099 73.0802C249.246 73.0802 247.908 74.2275 247.674 75.8899H254.289C254.031 74.2275 252.858 73.0802 251.099 73.0802Z" fill="black"/>
<path d="M243.338 74.6489H241.109C240.546 73.6889 239.514 73.0802 238.247 73.0802C236.136 73.0802 234.635 74.766 234.635 76.8967C234.635 79.0274 236.136 80.7132 238.247 80.7132C239.514 80.7132 240.546 80.1044 241.109 79.1444H243.338C242.564 81.2283 240.64 82.5863 238.247 82.5863C235.057 82.5863 232.617 80.1512 232.617 76.8967C232.617 73.6421 235.057 71.207 238.247 71.207C240.64 71.207 242.564 72.5651 243.338 74.6489Z" fill="black"/>
<path d="M225.091 80.7132C226.358 80.7132 227.39 80.2215 227.953 79.2615H230.135C229.384 81.3454 227.461 82.5863 225.091 82.5863C221.83 82.5863 219.438 80.1981 219.438 76.8733C219.438 73.6421 221.713 71.207 224.974 71.207C228.07 71.207 230.276 73.6655 230.276 76.7562C230.276 77.0137 230.276 77.3415 230.229 77.6459H221.525C221.76 79.402 223.238 80.7132 225.091 80.7132ZM224.974 73.0802C223.121 73.0802 221.783 74.2275 221.549 75.8899H228.164C227.906 74.2275 226.733 73.0802 224.974 73.0802Z" fill="black"/>
<path d="M203.445 66.7305H208.677C214.119 66.7305 217.216 70.2426 217.216 74.504C217.216 78.7653 214.119 82.2775 208.677 82.2775H203.445V66.7305ZM215.105 74.504C215.105 71.0855 212.735 68.6973 208.817 68.6973H205.557V80.3107H208.817C212.735 80.3107 215.105 77.9224 215.105 74.504Z" fill="black"/>
<path d="M189.067 72.0248C190.209 72.0248 191.202 72.2199 192.046 72.6102C192.891 73.0004 193.54 73.5623 193.994 74.296C194.463 75.014 194.697 75.8959 194.697 76.9418C194.697 78.0969 194.447 79.0959 193.947 79.9388C193.446 80.7661 192.727 81.4061 191.788 81.8588C190.866 82.2958 189.747 82.5144 188.434 82.5144C187.574 82.5144 186.76 82.4363 185.994 82.2802C185.243 82.1241 184.61 81.8978 184.094 81.6012V79.6578C184.657 80.0012 185.337 80.2744 186.135 80.4773C186.948 80.6646 187.722 80.7583 188.457 80.7583C189.286 80.7583 190.005 80.6334 190.615 80.3837C191.241 80.1183 191.726 79.7203 192.07 79.1895C192.414 78.6432 192.586 77.9642 192.586 77.1525C192.586 76.0598 192.25 75.2247 191.577 74.6472C190.905 74.054 189.841 73.7575 188.387 73.7575C187.949 73.7575 187.448 73.7965 186.885 73.8745C186.322 73.9526 185.869 74.0306 185.525 74.1087L184.493 73.4531L185.126 65.5625H193.524V67.4356H186.885L186.487 72.2824C186.752 72.2355 187.112 72.1809 187.566 72.1185C188.019 72.056 188.52 72.0248 189.067 72.0248Z" fill="black"/>
<path d="M177.521 82.2802H175.504V70.5965C175.504 70.1439 175.504 69.7614 175.504 69.4493C175.52 69.1371 175.535 68.8483 175.551 68.5829C175.566 68.302 175.582 68.0132 175.598 67.7166C175.347 67.9664 175.121 68.1771 174.917 68.3488C174.714 68.5205 174.456 68.739 174.143 69.0044L172.36 70.4561L171.281 69.0746L175.809 65.5625H177.521V82.2802Z" fill="black"/>
<path d="M157.443 80.7132C158.71 80.7132 159.742 80.2215 160.305 79.2615H162.486C161.736 81.3454 159.812 82.5863 157.443 82.5863C154.182 82.5863 151.789 80.1981 151.789 76.8733C151.789 73.6421 154.065 71.207 157.325 71.207C160.422 71.207 162.627 73.6655 162.627 76.7562C162.627 77.0137 162.627 77.3415 162.58 77.6459H153.877C154.112 79.402 155.589 80.7132 157.443 80.7132ZM157.325 73.0802C155.472 73.0802 154.135 74.2275 153.9 75.8899H160.516C160.258 74.2275 159.085 73.0802 157.325 73.0802Z" fill="black"/>
<path d="M149.565 74.6489H147.336C146.773 73.6889 145.741 73.0802 144.474 73.0802C142.363 73.0802 140.861 74.766 140.861 76.8967C140.861 79.0274 142.363 80.7132 144.474 80.7132C145.741 80.7132 146.773 80.1044 147.336 79.1444H149.565C148.79 81.2283 146.867 82.5863 144.474 82.5863C141.284 82.5863 138.844 80.1512 138.844 76.8967C138.844 73.6421 141.284 71.207 144.474 71.207C146.867 71.207 148.79 72.5651 149.565 74.6489Z" fill="black"/>
<path d="M131.341 71.207C134.297 71.207 136.033 73.1738 136.033 75.9367V82.2819H134.015V76.1006C134.015 74.3211 133.077 73.0802 131.13 73.0802C129.371 73.0802 127.705 74.4148 127.705 76.6859V82.2819H125.688V71.5114H127.705V72.6821C128.409 71.8158 129.676 71.207 131.341 71.207Z" fill="black"/>
<path d="M119.875 71.5068H121.893V82.2774H119.875V71.5068ZM119.711 69.0484V66.6133H122.057V69.0484H119.711Z" fill="black"/>
<path d="M104.117 78.4177H106.416C107.12 79.7523 108.809 80.6187 110.873 80.6187C113.243 80.6187 114.932 79.5182 114.932 78.0197C114.932 76.5446 113.853 75.7954 111.624 75.5612L108.903 75.2802C105.83 74.9524 104.539 73.29 104.539 71.0891C104.539 68.3496 106.838 66.4297 110.545 66.4297C114.369 66.4297 116.457 68.7009 117.114 70.5974H114.815C114.205 69.3096 112.492 68.3965 110.475 68.3965C108.035 68.3965 106.651 69.5906 106.651 70.9955C106.651 72.4237 107.706 73.173 109.536 73.3603L112.469 73.6647C115.331 73.969 117.043 75.608 117.043 77.9026C117.043 80.2206 114.955 82.5855 110.873 82.5855C106.768 82.5855 104.821 80.4314 104.117 78.4177Z" fill="black"/>
<path d="M65.8322 20.7966C65.8322 20.7966 63.2735 18.9997 71.4929 94.1561C76.3108 88.257 89.4011 84.6991 89.4011 84.6991C89.4011 84.6991 88.0936 71.3226 87.0154 60.4261C86.0726 50.8974 85.9551 36.1209 85.9551 36.1209C85.9551 36.1209 76.9695 36.1209 70.0019 31.0117C64.5844 27.0392 65.8322 20.7966 65.8322 20.7966Z" fill="black"/>
<path d="M32.7313 23.1547L29.3659 97.6189C29.3659 97.6189 46.9489 97.485 57.4794 96.8622C56.8813 70.237 57.0181 18.9997 57.0181 18.9997L32.7313 23.1547Z" fill="black"/>
<path d="M68.5862 36.1203L70.603 41.6052L49.7811 45.4912L49.7783 37.12L68.5862 36.1203Z" fill="black"/>
</svg>
